<?xml version="1.0" encoding="UTF-8" standalone="no"?>
<!-- Created with Inkscape (http://www.inkscape.org/) -->

<svg
   width="61.70063mm"
   height="39.263767mm"
   viewBox="0 0 61.70063 39.263767"
   version="1.1"
   id="svg1"
   xml:space="preserve"
   sodipodi:docname="auto.svg"
   xmlns:inkscape="http://www.inkscape.org/namespaces/inkscape"
   xmlns:sodipodi="http://sodipodi.sourceforge.net/DTD/sodipodi-0.dtd"
   xmlns="http://www.w3.org/2000/svg"
   xmlns:svg="http://www.w3.org/2000/svg"
   xmlns:rdf="http://www.w3.org/1999/02/22-rdf-syntax-ns#"
   xmlns:cc="http://creativecommons.org/ns#"
   xmlns:dc="http://purl.org/dc/elements/1.1/"><sodipodi:namedview
     id="namedview1"
     pagecolor="#ffffff"
     bordercolor="#999999"
     borderopacity="1"
     inkscape:showpageshadow="2"
     inkscape:pageopacity="0"
     inkscape:pagecheckerboard="0"
     inkscape:deskcolor="#d1d1d1"
     inkscape:document-units="mm"><inkscape:page
       x="0"
       y="0"
       width="61.70063"
       height="39.263767"
       id="page2"
       margin="0"
       bleed="0" /></sodipodi:namedview><defs
     id="defs1" /><metadata
     id="metadata1"><rdf:RDF><cc:Work
         rdf:about=""><dc:format>image/svg+xml</dc:format><dc:type
           rdf:resource="http://purl.org/dc/dcmitype/StillImage" /></cc:Work></rdf:RDF></metadata><path
     d="m 21.46846,0 c -0.897,0 -1.76622,0.14019001 -2.6076,0.42065001 C 18.01949,0.70111001 17.34157,1.16823 16.8274,1.82263 L 6.17016,15.635221 c -0.37394,0.51418 -0.6313,1.0867 -0.77152,1.71773 -0.14023,0.63103 -0.21033,1.27416 -0.21033,1.92856 v 3.5755 c -1.58926,0.70114 -2.85095,1.759 -3.78581,3.17345 C 0.46764,27.445371 0,29.028581 0,30.780041 c 0,2.38389 0.81811,4.39411 2.45411,6.030123 1.63601,1.63601 3.64571,2.4536 6.02961,2.4536 1.96321,0 3.70093,-0.61776 5.2126,-1.85364 1.51167,-1.23588 2.5552,-2.814583 3.13108,-4.736663 h 23.41821 c 0.56092,1.91647 1.58931,3.493843 3.08508,4.732533 1.49578,1.23869 3.22762,1.85777 5.19503,1.85777 1.96696,0 3.71982,-0.60732 5.2586,-1.82263 1.53831,-1.21532 2.54116,-2.804463 3.0086,-4.767673 h 0.70125 c 1.15689,0 2.14675,-0.41254 2.97036,-1.23662 0.82408,-0.82361 1.2361,-1.81347 1.2361,-2.97036 V 4.20647 c 0,-1.1569 -0.41202,-2.14732 -1.2361,-2.9714 C 59.64092,0.41146001 58.65106,0 57.49417,0 Z m 2.02003,4.20647 h 16.54679 v 9.956491 h -9.88621 v 4.20698 h 9.88621 v 10.09654 H 23.48849 Z m 20.75377,0 h 13.25191 v 9.956491 H 44.24226 Z M 19.28151,5.959331 v 11.49904 h -8.90437 z m 24.96075,12.41061 h 13.25191 v 10.09654 h -0.84181 c -0.51418,-1.77624 -1.53079,-3.24873 -3.04994,-4.4173 -1.51915,-1.16858 -3.21317,-1.75286 -5.0829,-1.75286 -0.78388,0 -1.53251,0.11664 -2.24534,0.35036 -0.71283,0.23372 -1.39013,0.58419 -2.03192,1.05162 z m -34.84697,3.29541 h 9.88622 v 6.80113 h -2.59416 c -0.51417,-1.68275 -1.42591,-3.09692 -2.73471,-4.24212 -1.30881,-1.1452 -2.82786,-1.71772 -4.55735,-1.71772 z m -0.90795,4.83795 c 1.21298,0 2.22832,0.41007 3.04632,1.23041 0.81801,0.82081 1.22732,1.83742 1.22732,3.04994 0,1.21298 -0.41008,2.22833 -1.23042,3.04633 -0.82081,0.81801 -1.83743,1.22732 -3.04994,1.22732 -1.21298,0 -2.22884,-0.4106 -3.04684,-1.23094 -0.81801,-0.8208 -1.2268,-1.83742 -1.2268,-3.04994 0,-1.21298 0.41007,-2.22832 1.23041,-3.04633 0.82081,-0.818 1.83743,-1.22679 3.04995,-1.22679 z m 40.03528,0 c 1.21298,0 2.22884,0.41007 3.04684,1.23041 0.818,0.82081 1.2268,1.83742 1.2268,3.04994 0,1.21298 -0.41007,2.22833 -1.23041,3.04633 -0.82081,0.81801 -1.83743,1.22732 -3.04995,1.22732 -1.21298,0 -2.22832,-0.4106 -3.04632,-1.23094 -0.81801,-0.8208 -1.22732,-1.83742 -1.22732,-3.04994 0,-1.21298 0.41008,-2.22832 1.23042,-3.04633 0.82081,-0.818 1.83743,-1.22679 3.04994,-1.22679 z"
     style="fill:#e3e3e3;stroke-width:0.0701146"
     id="path9" /></svg>
