<?xml version="1.0" encoding="UTF-8" standalone="no"?>
<!-- Created with Inkscape (http://www.inkscape.org/) -->

<svg
   width="95.192703mm"
   height="45.128506mm"
   viewBox="0 0 95.192703 45.128506"
   version="1.1"
   id="svg1"
   xml:space="preserve"
   sodipodi:docname="bus.svg"
   xmlns:inkscape="http://www.inkscape.org/namespaces/inkscape"
   xmlns:sodipodi="http://sodipodi.sourceforge.net/DTD/sodipodi-0.dtd"
   xmlns="http://www.w3.org/2000/svg"
   xmlns:svg="http://www.w3.org/2000/svg"
   xmlns:rdf="http://www.w3.org/1999/02/22-rdf-syntax-ns#"
   xmlns:cc="http://creativecommons.org/ns#"
   xmlns:dc="http://purl.org/dc/elements/1.1/"><sodipodi:namedview
     id="namedview1"
     pagecolor="#ffffff"
     bordercolor="#999999"
     borderopacity="1"
     inkscape:showpageshadow="2"
     inkscape:pageopacity="0"
     inkscape:pagecheckerboard="0"
     inkscape:deskcolor="#d1d1d1"
     inkscape:document-units="mm"><inkscape:page
       x="0"
       y="0"
       width="95.192703"
       height="45.128506"
       id="page1"
       margin="0"
       bleed="0" /></sodipodi:namedview><defs
     id="defs1" /><metadata
     id="metadata1"><rdf:RDF><cc:Work
         rdf:about=""><dc:format>image/svg+xml</dc:format><dc:type
           rdf:resource="http://purl.org/dc/dcmitype/StillImage" /></cc:Work></rdf:RDF></metadata><path
     d="M 18.794718,0 0,18.794718 v 17.349329 h 6.4254476 c 0,2.45404 0.8597695,4.540226 2.5796875,6.258533 1.7199169,1.71777 3.8085279,2.576587 6.2652509,2.576587 2.45672,0 4.541942,-0.858817 6.255432,-2.576587 1.71349,-1.718307 2.569869,-3.804493 2.569869,-6.258533 h 21.424532 0.195337 0.869714 c 0,0.0169 -3e-5,0.03374 0,0.05064 h 13.223999 a 8.7931671,8.7931671 0 0 0 -10e-4,0.14056 8.7931671,8.7931671 0 0 0 8.793261,8.793262 8.7931671,8.7931671 0 0 0 8.792745,-8.793262 8.7931671,8.7931671 0 0 0 -10e-4,-0.14056 h 14.99185 v -0.185518 h 2.80758 c 0,-10.67153 -2e-6,-21.34295 -0.132292,-27.3182296 -0.13229,-5.97528 -0.397038,-7.254155 -5.247741,-7.89357505 C 85.020416,0.16565735 75.752374,0.15821988 66.430054,0.15812988 65.994364,0.05277988 65.537298,0 65.059078,0 Z M 70.8179,4.4415894 c 6.80738,-0.11127 13.091738,-0.1574987 16.536458,0.1483113 4.222313,0.37484 4.178375,1.2787433 4.156335,5.8208333 -0.007,1.5313 -0.0122,3.475883 -0.0155,5.694743 H 70.8179 Z M 21.365104,4.8193441 h 4.337203 V 16.064136 H 10.120312 Z m 9.156547,0 H 45.782218 V 16.064136 H 30.521651 Z m 20.079911,0 H 65.86213 V 16.064136 H 50.601562 Z M 65.912256,20.872111 v 5.17e-4 c 0.026,0 0.05333,9.91e-4 0.08113,0.0062 0.008,0.002 0.01641,0.0037 0.02481,0.0067 l 25.472347,0.03204 c -0.002,3.25539 -0.0021,6.810453 -0.0021,10.366293 v 0.02842 H 75.818628 a 8.7931671,8.7931671 0 0 0 -7.217131,-3.770313 8.7931671,8.7931671 0 0 0 -7.197493,3.741891 H 47.977433 c -0.009,0.0134 -0.01745,0.02681 -0.02635,0.04031 h -2.33888 -22.881807 c -0.9103,-1.39221 -2.048306,-2.40945 -3.413746,-3.05201 -1.36544,-0.64255 -2.717423,-0.963765 -4.056083,-0.963765 -1.33867,0 -2.690645,0.321215 -4.056083,0.963765 -1.3654397,0.64256 -2.5034521,1.6598 -3.4137451,3.05201 H 4.8193441 V 20.882963 h 60.7782019 0.02481 c 0.0677,-0.005 0.165195,-0.01085 0.289905,-0.01085 z M 15.249198,31.324703 c 1.34616,0 2.488054,0.465177 3.425114,1.394747 0.93707,0.92957 1.405599,2.067068 1.405599,3.413228 0,1.34617 -0.46466,2.488054 -1.39423,3.425114 -0.92957,0.93707 -2.067585,1.405599 -3.413745,1.405599 -1.34617,0 -2.487531,-0.46466 -3.424597,-1.39423 -0.937066,-0.92957 -1.405599,-2.067585 -1.405599,-3.413745 0,-1.34616 0.46466,-2.488044 1.39423,-3.425114 0.929569,-0.93706 2.067068,-1.405599 3.413228,-1.405599 z m 53.352299,0.05271 a 4.9578495,4.9578495 0 0 1 4.95577,4.817277 4.9578495,4.9578495 0 0 1 0.0021,0.14056 4.9578495,4.9578495 0 0 1 -4.957837,4.957837 4.9578495,4.9578495 0 0 1 -4.957837,-4.957837 4.9578495,4.9578495 0 0 1 0.0021,-0.14056 4.9578495,4.9578495 0 0 1 4.955769,-4.817277 z"
     style="opacity:1;fill:#e3e3e3;stroke-width:2.72521;stroke-dasharray:10.9008, 8.17562;paint-order:stroke fill markers"
     id="path1" /></svg>
