<?xml version="1.0" encoding="UTF-8" standalone="no"?>
<!-- Created with Inkscape (http://www.inkscape.org/) -->

<svg
   width="60.01804mm"
   height="29.99996mm"
   viewBox="0 0 60.01804 29.99996"
   version="1.1"
   id="svg1"
   xml:space="preserve"
   sodipodi:docname="car.svg"
   xmlns:inkscape="http://www.inkscape.org/namespaces/inkscape"
   xmlns:sodipodi="http://sodipodi.sourceforge.net/DTD/sodipodi-0.dtd"
   xmlns="http://www.w3.org/2000/svg"
   xmlns:svg="http://www.w3.org/2000/svg"
   xmlns:rdf="http://www.w3.org/1999/02/22-rdf-syntax-ns#"
   xmlns:cc="http://creativecommons.org/ns#"
   xmlns:dc="http://purl.org/dc/elements/1.1/"><sodipodi:namedview
     id="namedview1"
     pagecolor="#ffffff"
     bordercolor="#999999"
     borderopacity="1"
     inkscape:showpageshadow="2"
     inkscape:pageopacity="0"
     inkscape:pagecheckerboard="0"
     inkscape:deskcolor="#d1d1d1"
     inkscape:document-units="mm"
     showguides="true"><sodipodi:guide
       position="20.868977,18.939682"
       orientation="0,-1"
       id="guide26"
       inkscape:locked="false" /><sodipodi:guide
       position="37.66382,17.751124"
       orientation="1,0"
       id="guide27"
       inkscape:locked="false" /><sodipodi:guide
       position="36.113527,14.547185"
       orientation="1,0"
       id="guide28"
       inkscape:locked="false" /><sodipodi:guide
       position="18.853597,21.161769"
       orientation="1,0"
       id="guide29"
       inkscape:locked="false" /><sodipodi:guide
       position="22.862018,24.226521"
       orientation="0,-1"
       id="guide30"
       inkscape:locked="false" /><sodipodi:guide
       position="2.2530314,18.599244"
       orientation="0,-1"
       id="guide31"
       inkscape:locked="false" /><sodipodi:guide
       position="59.841263,7.8562621"
       orientation="0,-1"
       id="guide36"
       inkscape:locked="false" /><sodipodi:guide
       position="27.586916,1.6280773"
       orientation="0,-1"
       id="guide37"
       inkscape:locked="false" /><inkscape:page
       x="1.461609e-17"
       y="0"
       width="60.018044"
       height="29.99996"
       id="page1"
       margin="0"
       bleed="0" /></sodipodi:namedview><defs
     id="defs1"><inkscape:path-effect
       effect="bspline"
       id="path-effect38"
       is_visible="true"
       lpeversion="1.3"
       weight="33.333333"
       steps="2"
       helper_size="0"
       apply_no_weight="true"
       apply_with_weight="true"
       only_selected="false"
       uniform="false" /></defs><metadata
     id="metadata1"><rdf:RDF><cc:Work
         rdf:about=""><dc:format>image/svg+xml</dc:format><dc:type
           rdf:resource="http://purl.org/dc/dcmitype/StillImage" /></cc:Work></rdf:RDF></metadata><style
     type="text/css"
     id="style1">.st0{fill-rule:evenodd;clip-rule:evenodd;}</style><g
     id="g38"
     transform="translate(-9.8784997,-0.87697814)"><path
       d="m 37.421001,2.405291 c -0.09576,0 -0.189995,0.00632 -0.28267,0.018604 h -2.458765 -0.391191 l -3.957381,2.7476359 h 0.109037 c -0.398419,0.262645 -0.822574,0.538329 -1.313098,0.868164 -0.372493,0.2504682 -0.783563,0.5322375 -1.227315,0.8387085 -0.746463,0.515534 -1.585908,1.1014659 -2.493388,1.7280599 -0.652576,0.450589 -1.340576,0.922448 -2.04742,1.4055987 l -2.31097,1.604553 c -0.07404,0.0514 -0.152737,0.09499 -0.234611,0.130741 -0.04327,0.01889 -0.08725,0.03552 -0.132292,0.05013 l -0.04082,0.06821 -7.910547,0.730815 c -1.653427,0.152752 -2.8510702,1.244576 -2.8510702,2.790528 v 6.297179 c 0,1.545952 1.3367652,2.790528 2.9972332,2.790528 h 1.740462 c 0.232433,0.05272 0.475402,0.07906 0.729155,0.07906 h 5.322155 v 0.579809 c 0,1.59549 0.558133,2.951786 1.674833,4.068486 1.1167,1.1167 2.472996,1.674833 4.068486,1.674833 1.59549,0 2.951259,-0.558133 4.067969,-1.674833 1.1167,-1.1167 1.67535,-2.472996 1.67535,-4.068486 V 24.55381 h 2.519226 4.754231 1.488799 0.248046 1.570447 3.513998 3.677811 v 0.579809 c 0,1.595488 0.558648,2.951785 1.67535,4.068486 1.116702,1.116702 2.47248,1.674833 4.067969,1.674833 1.595488,0 2.951784,-0.558131 4.068485,-1.674833 1.116702,-1.116701 1.674834,-2.472998 1.674834,-4.068486 V 24.55381 h 5.322155 c 0.869404,0 1.613642,-0.309329 2.232939,-0.928626 0.618945,-0.618946 0.928109,-1.363018 0.928109,-2.232422 v -6.323128 c 0,-0.869405 -0.309164,-1.613642 -0.928109,-2.232939 C 68.349132,12.217749 67.604894,11.90807 66.73549,11.90807 L 63.162501,8.8857592 55.775436,2.4238946 h -8.580872 c -0.09268,-0.012284 -0.186909,-0.018604 -0.28267,-0.018604 h -2.52336 -1.912028 z m -1.617025,3.2979799 h 5.997063 l -2e-6,6.2606381 -15.150506,-0.124764 z m 9.077321,0.073082 9.664568,-0.182704 6.579563,6.4282071 -15.988345,-0.04967 z M 40.916395,15.01434 h 0.248046 v 0.05529 h 1.312065 1.912028 1.860352 20.486604 v 6.323128 h -6.692098 c -0.597166,-0.632294 -1.255477,-1.124088 -1.97559,-1.475362 -0.720112,-0.351275 -1.5196,-0.527099 -2.397786,-0.527099 -0.983569,0 -1.844078,0.202198 -2.581755,0.606164 -0.737676,0.403965 -1.334964,0.869385 -1.791622,1.396297 H 46.248886 42.734888 41.164441 40.916395 39.427596 34.673365 30.784196 C 30.63189,21.217014 30.463939,21.047874 30.280351,20.885812 29.9135,20.561975 29.484216,20.265688 28.992575,19.996461 c -0.73767,-0.40397 -1.598185,-0.606164 -2.581755,-0.606164 -0.87819,0 -1.677676,0.175829 -2.397786,0.527099 -0.72011,0.35128 -1.378421,0.843062 -1.975591,1.475362 h -6.692097 v -0.0186 h -2.27273 v -6.304525 h 5.994466 11.213269 4.393014 6.24303 z m -14.520044,6.979936 c 1.740946,0 3.152262,1.411316 3.152262,3.152262 0,1.740947 -1.411315,3.152263 -3.152262,3.152263 -1.740947,0 -3.152263,-1.411316 -3.152263,-3.152263 0,-1.740947 1.411316,-3.152262 3.152263,-3.152262 z m 29.257645,0 c 1.740947,0 3.152263,1.411315 3.152263,3.152262 0,1.740947 -1.411316,3.152263 -3.152263,3.152263 -1.740947,0 -3.152262,-1.411316 -3.152262,-3.152263 0,-1.740946 1.411316,-3.152262 3.152262,-3.152262 z"
       style="fill:#e3e3e3;fill-opacity:1;stroke-width:0.596355;paint-order:stroke fill markers"
       id="path37"
       inkscape:export-filename="car.svg"
       inkscape:export-xdpi="96"
       inkscape:export-ydpi="96"
       sodipodi:nodetypes="scccccsssccsccsssscscsssssccccccccssssscsssscccccsccscccccccccccccccccccsssccccccccscscccccccccccssssssssss" /><path
       style="fill:#e3e3e3;fill-opacity:1;stroke-width:1;paint-order:stroke fill markers"
       d="m 36.029185,3.1425049 c 0,0 1.973202,-1.9001192 1.973202,-1.9001192 0,0 9.792922,-0.146163 9.792922,-0.146163 0,0 2.411688,1.8270379 2.411688,1.8270379 z"
       id="path38"
       inkscape:path-effect="#path-effect38"
       inkscape:original-d="m 36.029185,3.1425049 c 0,0 1.973202,-1.9001192 1.973202,-1.9001192 0,0 9.792922,-0.146163 9.792922,-0.146163 0,0 2.411688,1.8270379 2.411688,1.8270379 z"
       transform="matrix(0.76288658,0,0,1,8.0314329,-0.21924453)" /></g></svg>
